Jump_normalized_Motion_pl05
version=1
nRows=8
nColumns=43
inDegrees=yes
endheader
time		pelvis_tilt		pelvis_list		pelvis_rotation		pelvis_tx		pelvis_ty		pelvis_tz		hip_flexion_r		hip_adduction_r		hip_rotation_r		knee_angle_r		ankle_angle_r		subtalar_angle_r		mtp_angle_r		hip_flexion_l		hip_adduction_l		hip_rotation_l		knee_angle_l		ankle_angle_l		subtalar_angle_l		mtp_angle_l		lumbar_extension		lumbar_bending		lumbar_rotation		neck_flexion		neck_lateral_bending		neck_rotation		arm_flex_r		arm_add_r		arm_rot_r		elbow_flex_r		pro_sup_r		wrist_flex_r		wrist_dev_r		hand_finger_flex_r		arm_flex_l		arm_add_l		arm_rot_l		elbow_flex_l		pro_sup_l		wrist_flex_l		wrist_dev_l		hand_finger_flex_l		
0.830833		3.410890		-24.779918		88.051456		0.058552		1.922072		1.691038		58.341103		6.865955		0.101540		-103.479096		26.857821		-2.275652		-5.830039		61.492848		-10.231099		-0.402363		-109.500311		13.377814		0.286072		27.212969		-37.452401		-0.480268		2.099719		32.000540		-0.217784		3.845805		101.046764		-22.444773		22.743539		83.901108		146.609424		11.226373		8.483543		-19.788693		111.384274		-25.158860		26.545717		82.030570		116.357230		-4.811081		-1.238275		28.560374		
0.834975		3.376418		-24.885124		87.990118		0.058124		1.925035		1.684203		57.482030		6.763179		0.238239		-102.674522		26.708855		-2.123440		-5.960873		60.974449		-10.162823		-0.455334		-108.955594		12.541320		0.403032		27.159332		-36.962356		-0.450803		2.082145		31.550431		-0.284878		3.891639		101.346513		-22.400524		22.926474		83.754872		146.453102		11.534922		8.327674		-19.669649		111.678397		-25.073453		26.737128		81.805400		116.296096		-4.773417		-1.248279		28.740975		
0.839116		3.268951		-24.845345		87.912677		0.057542		1.928127		1.677128		56.472659		6.576699		0.446984		-101.907491		26.522418		-1.868903		-6.148960		60.341538		-10.018457		-0.551227		-108.422570		11.174721		0.482528		27.082494		-36.601333		-0.464736		2.039231		30.844842		-0.383767		3.960203		101.662517		-22.386798		23.170504		83.554718		146.255189		11.908907		8.121025		-19.500150		111.971446		-24.986280		26.992249		81.518357		116.188387		-4.748268		-1.259571		29.003276		
0.843258		3.083073		-24.697277		87.814062		0.056823		1.931339		1.669860		55.350515		6.309916		0.731833		-101.164436		26.332068		-1.500119		-6.385029		59.623580		-9.790920		-0.708616		-107.880082		9.341882		0.354149		26.983677		-36.338138		-0.531541		1.956876		29.996453		-0.496064		4.025489		101.962515		-22.358462		23.414586		83.315170		146.068576		12.267506		7.915086		-19.260695		112.236791		-24.883636		27.264177		81.187145		116.029586		-4.803774		-1.272488		29.340900		
0.847399		2.967009		-24.790822		87.752596		0.056242		1.934212		1.662745		54.472544		6.128607		0.954758		-100.353821		26.228179		-1.267859		-6.545290		59.191518		-9.640621		-0.865513		-107.378022		8.396623		0.120916		26.921431		-35.858298		-0.548931		1.893886		29.739686		-0.538664		4.040956		102.152384		-22.269475		23.519395		83.148588		145.974708		12.431945		7.815708		-19.106168		112.423533		-24.781591		27.409740		80.948515		115.922454		-4.896139		-1.282913		29.565996		
0.851540		2.708973		-24.644502		87.611752		0.055461		1.937217		1.655290		53.390903		5.816947		1.339848		-99.644282		25.924008		-0.815390		-6.778185		58.550104		-9.367474		-1.080153		-106.862083		6.203761		-0.163294		26.815648		-35.531261		-0.675139		1.797560		28.619023		-0.671358		4.094776		102.376984		-22.235447		23.815766		82.840708		145.844966		12.732461		7.649985		-18.767466		112.575573		-24.694118		27.723255		80.576350		115.806986		-5.083551		-1.272631		29.919265		
0.855682		2.464685		-24.623251		87.485418		0.054742		1.940059		1.647877		52.434427		5.530075		1.711358		-98.897076		25.669138		-0.412989		-6.989200		58.066998		-9.135487		-1.331416		-106.349555		4.448611		-0.609421		26.719519		-35.102588		-0.793579		1.696358		27.899267		-0.769844		4.122268		102.539859		-22.197495		24.060240		82.586825		145.740893		12.926329		7.529619		-18.452367		112.696303		-24.630550		28.003873		80.267175		115.706878		-5.349073		-1.289654		30.274582		
0.859823		2.357614		-24.777678		87.411046		0.054136		1.942480		1.640539		51.682216		5.354066		1.966105		-98.118886		25.444751		-0.201250		-7.094164		57.820940		-9.014628		-1.473992		-105.957131		3.526247		-0.746474		26.674022		-34.508561		-0.815650		1.639098		27.525810		-0.814453		4.132049		102.654131		-22.113397		24.264636		82.376274		145.700619		13.040990		7.495036		-18.306429		112.770863		-24.529792		28.183198		80.002443		115.679788		-5.475556		-1.270887		30.432948		
